<?xml version="1.0" encoding="iso-8859-1"?>
<!-- Generator: Adobe Illustrator 29.0.0, SVG Export Plug-In . SVG Version: 9.03 Build 54978)  -->
<svg version="1.1" id="Layer_1" xmlns="http://www.w3.org/2000/svg" xmlns:xlink="http://www.w3.org/1999/xlink" x="0px" y="0px"
	 viewBox="0 0 1728 1296" style="enable-background:new 0 0 1728 1296;" xml:space="preserve">
<path style="fill:none;stroke:#000000;stroke-width:5;stroke-miterlimit:10;" d="M1150.355,787.313
	c-1.557,2.757-3.903,5.459-5.263,8.248c-1.92,4.045-2.167,8.888-5.392,12.335c-2.42,3.081-7.785,5.596-7.481,9.803
	c0.079,4.157,4.159,8.857,1.135,12.623c-8.127,5.97-19.659,7.844-29.231,10.511c-1.94,0.625-10.257,2.917-4.251,4.943
	c14.753,2.168,20.162,12.907,5.337,22.345c-6.588,4.7-9.581,12.884-16.366,17.438c-8.975,7.995-23.475,4.349-34.649,5.21
	c-20.136,0.724,13.174,18.424-1.486,25.984c-4.586,2.602-11.805,1.034-14.999,5.975c-2.362,3.591-1.246,10.192-3.062,14.713
	c-4.08,10.059-18.096,7.127-25.857,12.267c-5.175,3.429-3.665,10.716-5.792,15.849c-4.075,10.519-16.632,12.155-24.37,19.187
	c-4.465,3.849-5.335,10.17-9.229,14.378c-14.492,14.182-34.749-5.389-40.15,10.308c-2.64,7.448-1.923,16.062-6.111,22.647
	c-4.331,8.313-15.337,10.668-22.459,4.307c-3.813-2.67-6.895-6.684-9.328-6.152c-3.747,1.611-4.807,7.294-6.739,10.88
	c-5.801,11.472-9.217,23.404-19.14,31.476c-9.344,4.632-14.466,7.753-19.671,17.012c-5.071,7.547-20.633,9.797-22.305-1.406
	c-0.681-7.049,2.341-13.585,2.307-20.747c-0.188-7.66,1.748-14.998,2.774-22.516c0.999-9.015-2.846-17.406-2.89-26.301
	c0.34-11.125,1.153-22.089-0.802-32.884c-0.234-10.409-3.564-44.721-20.782-34.267c-3.971,2.771-10.831,6.01-9.91,11.655
	c3.091,6.802,17.692,8.205,19.425,17.104c0.613,13.887-19.058,5.339-26.678,3.88c-19.157-8.325-12.994,5.338-16.259,17.072
	c-3.826,9.185-17.335,7.389-25.06,4.821c-6.109-2.527-11.451-9.106-18.367-8.102c-6.07,0.831-12.187,4.942-18.249,6.755
	c-6.791,2.648-14.137,2.823-21.047,3.794c-31.672,7.086-62.128,11.543-95.124,9.955c-10.864,0.144-20.878-3.646-31.047-5.82
	c-7.717-0.532-14.888,3.836-22.665,1.156c-13.012-2.663-24.346-6.76-37.797-5.347c-12.947,0.813-24.914-3.904-37.059-7.653
	c-11.342-3.801-24.285-0.769-35.745-4.424c-11.982-4.606-20.897-15.682-34.035-17.857c-16.045-2.719-33.209-6.594-45.159-18.75
	c-5.048-4.717-9.82-9.543-15.999-12.334c-8.819-3.829-17.883-7.904-26.646-10.901c-6.686-2.162-13.017-5.877-17.242-11.58
	c-4.215-5.496-7.764-12.665-13.374-17.048c-6.817-7.786-29.745-8.11-30.99-18.001c1.265-8.755,8.757-18.408,15.736-23.202
	c8.491-5.371,18.459-3.83,27.967-4.684c10.23-1.44,21.988-2.741,32.626-3.929c6.643-1.308,12.687-4.586,19.535-5.338
	c8.719-1.331,16.801-3.861,25.48-5.475c6.339-1.267,13.201-0.35,19.497-2.125c10.373-4.036,19.973-10.422,30.878-13.053
	c11.068-4.134,23.031-1.183,34.558-1.868c5.359-0.547,10.261-2.529,15.651-3.021c5.311-0.563,11.45,0.432,16.884-0.292
	c6.55-1.686,19.237-1.758,22.236-8.565c1.468-7.165-0.461-17.96-7.156-23.001c-6.398-6.372-20.308-5.717-25.96-8.62
	c-4.89-3.634-4.341-11.659-1.149-16.327c3.07-4.131,8.406-6.553,11.274-11.16c9.432-14.67,19.241-27.192,35.374-34.911
	c6.597-3.536,14.698-5.816,20.061-11.053c3.488-3.395,6.569-6.235,11.954-6.893c7.676-1.153,15.975,0.215,23.595-1.306
	c18.714-5.023,28.889-0.359,46.785,1.666c7.175,0.813,14.747,4.775,21.525,0.915c7.762-5.392,16.941-8.652,24.688-13.967
	c13.924-11.671,17.019-30.751,22.383-47.208c3.873-16.629,7.128-33.806,10.189-50.538c-1.197-19.144-1.998-38.225-0.8-57.904
	c0.066-14.08,6.309-26.883,11.475-39.842c3.564-7.233,11.307-10.523,15.812-17.14c4.766-6.808,6.315-15.165,9.862-22.564
	c3.87-8.492,10.16-16.311,14.096-24.791c6.556-20.94,12.246-42.352,19.947-62.76c4.732-14.697,8.661-29.689,14.066-44.178
	c3.206-10.678,6.652-20.904,10.4-31.352c3.737-15.401,8.436-30.61,17.837-43.741c8.145-14.493,11.393-30.18,16.761-45.864
	c3.097-7.732,8.171-15.043,11.616-22.593c5.546-14.747,12.094-28.923,18.153-43.651c10.06-15.815,18.713-31.823,31.236-45.823
	c11.228-10.377,12.262,7.958,20.455,3.105c5.299-3.713,14.6-7.638,18.393,0.437c2.65,5.412,1.521,13.992,8.236,16.898
	c6.366,2.614,15.083,3.208,17.651,10.795c2.92,7.571,3.148,16.085,2.45,23.898c-1.109,9.145,6.643,15.124,11,22.114
	c3.055,5.345,4.814,10.6,6.051,16.15c1.698,7.653,1.685,16.044,0.361,23.802c-0.976,5.645-2.634,11.061-0.952,16.516
	c2.658,9.213,10.494,16.281,13.293,29.771c4.894,15.536-6.825,31.153,0.266,46.218c3.437,6.5,7.871,12.648,9.656,19.883
	c2.027,6.53,3.356,13.342,1.852,20.06c-0.871,4.576-1.715,9.208-0.767,13.876c2.464,11.444,12.346,20.456,11.337,32.79
	c-0.73,13.309-4.961,26.257-5.277,39.605c1.402,11.601,4.935,21.78,2.997,33.926c0.314,9.923-2.844,18.22-7.88,26.205
	c-5.296,12.509,1.404,27.938-2.339,40.719c-1.763,11.51-11.987,20.296-14.064,31.613c-0.795,6.702,3.666,12.433,4.448,18.935
	c1.415,8.313-2.226,15.125-2.544,23.608c-0.167,4.388,0.09,8.795,0.183,13.228c1.141,16.453-0.66,18.259-5.866,32.964
	c-1.384,8.71-2.667,16.719-5.046,25.001c-1.283,8.817-2.807,17.922-6.156,26.416c-2.207,6.336-1.798,13.087-3.222,19.573
	c-0.974,5.399-3.402,10.583-4.474,16.205c-1.73,7.001-0.902,15.31-5.587,21.164c-10.831,10.463-10.373,11.437-12.047,26.106
	c-0.59,10.561-12.977,25.98-9.731,34.461c4.783,8.706,15.897,4.421,23.78,3.611c12.738,0.532,25.116-0.447,37.266-4.238
	c9.931-1.699,20.174-2.355,29.572-6.381c11.857-3.409,24.443-0.296,35.936-5.655c18.572-5.208,36.78-12.423,55.117-18.183
	c9.471-4.537,19.606-14.047,30.947-11.43c4.494,0.773,7.937,5.521,4.983,9.717L1150.355,787.313z"/>
</svg>
